<svg xmlns="http://www.w3.org/2000/svg" xmlns:xlink="http://www.w3.org/1999/xlink"><defs>
<clipPath id="clip0">
<rect width="36" height="32"/>
</clipPath>

<clipPath id="clip0">
<rect width="124" height="124"/>
</clipPath>

<clipPath id="clip0">
<rect width="27" height="37"/>
</clipPath>
</defs><symbol id="cash" viewBox="0 0 124 87">
<path d="M120.35 4.53035C112.834 1.38439 105.313 0.1875 97.7953 0.1875C73.9311 0.185567 50.0689 12.2415 26.2047 12.2415C20.2197 12.2415 14.2387 11.4836 8.25375 9.58863C7.58144 9.37594 6.90719 9.27539 6.24844 9.27539C2.914 9.27539 0 11.8509 0 15.4262V76.7713C0 79.2135 1.40081 81.528 3.65025 82.4677C11.1658 85.6156 18.6872 86.8125 26.2047 86.8125C50.0689 86.8125 73.9331 74.7565 97.7972 74.7565C103.782 74.7565 109.763 75.5145 115.748 77.4094C116.42 77.6221 117.095 77.7227 117.753 77.7227C121.088 77.7227 124.002 75.1471 124.002 71.5719V10.2287C124 7.78459 122.599 5.47201 120.35 4.53035V4.53035ZM9.3 19.566C13.1982 20.5405 17.267 21.0297 21.452 21.2927C20.3127 26.9755 15.3062 31.2584 9.3 31.2584V19.566ZM9.3 74.6734V65.4347C15.9592 65.4347 21.3474 70.7076 21.6438 77.307C17.2786 76.957 13.1982 76.0869 9.3 74.6734V74.6734ZM62 62.0625C53.4382 62.0625 46.5 53.75 46.5 43.5C46.5 33.2481 53.4401 24.9375 62 24.9375C70.5599 24.9375 77.5 33.2481 77.5 43.5C77.5 53.7538 70.5579 62.0625 62 62.0625ZM114.7 67.434C111.305 66.5852 107.781 66.1095 104.175 65.8021C105.313 60.7593 109.504 56.9307 114.7 56.2733V67.434ZM114.7 21.7799C108.715 21.0239 104.071 16.0372 103.887 9.87867C107.673 10.2983 111.267 11.0833 114.7 12.3266V21.7799Z"/>
</symbol><symbol id="check" viewBox="0 0 125 125">
<path d="M123.29 42.6753L113.622 33.0073C111.327 30.7124 107.616 30.7124 105.346 33.0073L46.874 91.479L19.6768 64.2573C17.3818 61.9624 13.6709 61.9624 11.4004 64.2573L1.70801 73.9497C-0.586914 76.2446 -0.586914 79.9556 1.70801 82.2505L42.7236 123.291C45.0186 125.585 48.7295 125.585 51 123.291L123.266 50.9761C125.561 48.6567 125.561 44.9458 123.29 42.6753ZM44.1152 68.5542C45.6289 70.0923 48.1191 70.0923 49.6328 68.5542L100.414 17.7241C101.928 16.186 101.928 13.7202 100.414 12.2065L89.3789 1.14697C87.8652 -0.391113 85.375 -0.391113 83.8613 1.14697L46.874 38.1343L33.3486 24.5845C31.835 23.0464 29.3447 23.0464 27.8311 24.5845L16.7715 35.644C15.2578 37.1821 15.2578 39.648 16.7715 41.1616L44.1152 68.5542Z"/>
</symbol><symbol id="clock" viewBox="0 0 125 125">
<path d="M62.5 1.95312C29.0527 1.95312 1.95312 29.0527 1.95312 62.5C1.95312 95.9473 29.0527 123.047 62.5 123.047C95.9473 123.047 123.047 95.9473 123.047 62.5C123.047 29.0527 95.9473 1.95312 62.5 1.95312ZM62.5 111.328C35.5225 111.328 13.6719 89.4775 13.6719 62.5C13.6719 35.5225 35.5225 13.6719 62.5 13.6719C89.4775 13.6719 111.328 35.5225 111.328 62.5C111.328 89.4775 89.4775 111.328 62.5 111.328ZM77.5879 85.8398L56.8604 70.7764C56.1035 70.2148 55.6641 69.3359 55.6641 68.4082V28.3203C55.6641 26.709 56.9824 25.3906 58.5938 25.3906H66.4062C68.0176 25.3906 69.3359 26.709 69.3359 28.3203V62.915L85.6445 74.7803C86.9629 75.7324 87.2314 77.5635 86.2793 78.8818L81.6895 85.2051C80.7373 86.499 78.9062 86.792 77.5879 85.8398Z"/>
</symbol><symbol id="close" viewBox="0 0 352 512"><path d="M242.72 256l100.07-100.07c12.28-12.28 12.28-32.19 0-44.48l-22.24-22.24c-12.28-12.28-32.19-12.28-44.48 0L176 189.28 75.93 89.21c-12.28-12.28-32.19-12.28-44.48 0L9.21 111.45c-12.28 12.28-12.28 32.19 0 44.48L109.28 256 9.21 356.07c-12.28 12.28-12.28 32.19 0 44.48l22.24 22.24c12.28 12.28 32.2 12.28 44.48 0L176 322.72l100.07 100.07c12.28 12.28 32.2 12.28 44.48 0l22.24-22.24c12.28-12.28 12.28-32.19 0-44.48L242.72 256z"/></symbol><symbol id="id" viewBox="0 0 39 30">
<path d="M35.75 0H3.25C1.45573 0 0 1.43973 0 3.21429V26.7857C0 28.5603 1.45573 30 3.25 30H35.75C37.5443 30 39 28.5603 39 26.7857V3.21429C39 1.43973 37.5443 0 35.75 0ZM35.75 26.7857H3.25V3.21429H35.75V26.7857ZM14.0833 15C16.4734 15 18.4167 13.0781 18.4167 10.7143C18.4167 8.35045 16.4734 6.42857 14.0833 6.42857C11.6932 6.42857 9.75 8.35045 9.75 10.7143C9.75 13.0781 11.6932 15 14.0833 15ZM8.01667 23.5714H20.15C20.9896 23.5714 21.6667 22.9955 21.6667 22.2857V21C21.6667 18.8705 19.6286 17.1429 17.1167 17.1429C16.3854 17.1429 15.8505 17.6786 14.0833 17.6786C12.262 17.6786 11.8219 17.1429 11.05 17.1429C8.53802 17.1429 6.5 18.8705 6.5 21V22.2857C6.5 22.9955 7.17708 23.5714 8.01667 23.5714ZM24.375 19.2857H31.9583C32.2563 19.2857 32.5 19.0446 32.5 18.75V17.6786C32.5 17.3839 32.2563 17.1429 31.9583 17.1429H24.375C24.0771 17.1429 23.8333 17.3839 23.8333 17.6786V18.75C23.8333 19.0446 24.0771 19.2857 24.375 19.2857ZM24.375 15H31.9583C32.2563 15 32.5 14.7589 32.5 14.4643V13.3929C32.5 13.0982 32.2563 12.8571 31.9583 12.8571H24.375C24.0771 12.8571 23.8333 13.0982 23.8333 13.3929V14.4643C23.8333 14.7589 24.0771 15 24.375 15ZM24.375 10.7143H31.9583C32.2563 10.7143 32.5 10.4732 32.5 10.1786V9.10714C32.5 8.8125 32.2563 8.57143 31.9583 8.57143H24.375C24.0771 8.57143 23.8333 8.8125 23.8333 9.10714V10.1786C23.8333 10.4732 24.0771 10.7143 24.375 10.7143Z"/>
</symbol><symbol id="insta" viewBox="0 0 24 24">
<path d="M12.0027 5.8467C8.59743 5.8467 5.85075 8.594 5.85075 12C5.85075 15.406 8.59743 18.1533 12.0027 18.1533C15.4079 18.1533 18.1546 15.406 18.1546 12C18.1546 8.594 15.4079 5.8467 12.0027 5.8467ZM12.0027 16.0004C9.80212 16.0004 8.00312 14.2064 8.00312 12C8.00312 9.7936 9.79676 7.99955 12.0027 7.99955C14.2086 7.99955 16.0022 9.7936 16.0022 12C16.0022 14.2064 14.2032 16.0004 12.0027 16.0004ZM19.8412 5.595C19.8412 6.39295 19.1987 7.03024 18.4062 7.03024C17.6085 7.03024 16.9713 6.38759 16.9713 5.595C16.9713 4.80241 17.6138 4.15977 18.4062 4.15977C19.1987 4.15977 19.8412 4.80241 19.8412 5.595ZM23.9157 7.05166C23.8246 5.12909 23.3856 3.42609 21.9775 2.02298C20.5747 0.619882 18.8721 0.180743 16.9499 0.0843468C14.9689 -0.0281156 9.03112 -0.0281156 7.05008 0.0843468C5.1333 0.175388 3.43067 0.614526 2.02253 2.01763C0.614389 3.42073 0.180703 5.12373 0.0843279 7.0463C-0.0281093 9.02778 -0.0281093 14.9669 0.0843279 16.9483C0.175349 18.8709 0.614389 20.5739 2.02253 21.977C3.43067 23.3801 5.12794 23.8193 7.05008 23.9157C9.03112 24.0281 14.9689 24.0281 16.9499 23.9157C18.8721 23.8246 20.5747 23.3855 21.9775 21.977C23.3803 20.5739 23.8193 18.8709 23.9157 16.9483C24.0281 14.9669 24.0281 9.03314 23.9157 7.05166ZM21.3564 19.0744C20.9388 20.1241 20.1303 20.9327 19.0755 21.3558C17.496 21.9824 13.7481 21.8378 12.0027 21.8378C10.2572 21.8378 6.50396 21.977 4.92984 21.3558C3.88042 20.9381 3.07195 20.1294 2.64897 19.0744C2.02253 17.4946 2.16709 13.7458 2.16709 12C2.16709 10.2542 2.02789 6.50006 2.64897 4.92558C3.06659 3.87593 3.87507 3.06728 4.92984 2.6442C6.50931 2.01763 10.2572 2.16222 12.0027 2.16222C13.7481 2.16222 17.5014 2.02298 19.0755 2.6442C20.1249 3.06192 20.9334 3.87058 21.3564 4.92558C21.9828 6.50541 21.8383 10.2542 21.8383 12C21.8383 13.7458 21.9828 17.4999 21.3564 19.0744Z"/>
</symbol><symbol id="leaf" viewBox="0 0 36 32">
<g clip-path="url(#clip0)">
<path d="M34.138 0.606019C33.788 -0.175231 32.788 -0.206481 32.3692 0.531019C30.4317 3.89977 26.963 5.99977 23.0005 5.99977H18.0005C11.3755 5.99977 6.00049 11.3748 6.00049 17.9998C6.00049 18.4373 6.05049 18.856 6.09424 19.281C10.0817 16.4248 15.838 13.9998 24.0005 13.9998C24.5505 13.9998 25.0005 14.4498 25.0005 14.9998C25.0005 15.5498 24.5505 15.9998 24.0005 15.9998C8.28799 15.9998 1.62549 25.631 0.150487 29.2498C-0.262013 30.2685 0.225487 31.431 1.24424 31.8498C2.26924 32.2748 3.43174 31.781 3.85674 30.7685C3.95049 30.5435 5.16299 27.7748 8.35049 25.106C10.3755 27.8498 14.2255 30.4685 19.2817 29.931C29.0942 29.2185 36.0005 20.4185 36.0005 9.64352C36.0005 6.50602 35.3255 3.25602 34.138 0.606019Z"/>
</g>

</symbol><symbol id="pallete" viewBox="0 0 124 124">
<g clip-path="url(#clip0)">
<path d="M49.4789 1.21088C25.4054 5.90932 6.00622 25.2601 1.25935 49.2609C-7.70159 94.5499 33.1554 128.311 63.9375 123.54C73.9156 121.99 78.8078 110.316 74.2305 101.331C68.6359 90.3359 76.6281 77.4999 88.9797 77.4999H108.282C116.952 77.4999 123.976 70.3312 124 61.6851C123.879 23.5163 89.1492 -6.5149 49.4789 1.21088ZM23.25 77.4999C18.9633 77.4999 15.5 74.0367 15.5 69.7499C15.5 65.4632 18.9633 61.9999 23.25 61.9999C27.5367 61.9999 31 65.4632 31 69.7499C31 74.0367 27.5367 77.4999 23.25 77.4999ZM31 46.4999C26.7133 46.4999 23.25 43.0367 23.25 38.7499C23.25 34.4632 26.7133 30.9999 31 30.9999C35.2867 30.9999 38.75 34.4632 38.75 38.7499C38.75 43.0367 35.2867 46.4999 31 46.4999ZM62 30.9999C57.7133 30.9999 54.25 27.5367 54.25 23.2499C54.25 18.9632 57.7133 15.4999 62 15.4999C66.2867 15.4999 69.75 18.9632 69.75 23.2499C69.75 27.5367 66.2867 30.9999 62 30.9999ZM93 46.4999C88.7133 46.4999 85.25 43.0367 85.25 38.7499C85.25 34.4632 88.7133 30.9999 93 30.9999C97.2867 30.9999 100.75 34.4632 100.75 38.7499C100.75 43.0367 97.2867 46.4999 93 46.4999Z"/>
</g>

</symbol><symbol id="tree" viewBox="0 0 27 37">
<g clip-path="url(#clip0)">
<path d="M26.6001 27.3517L20.9828 20.8124H23.1365C23.77 20.8124 24.3304 20.4511 24.5976 19.8686C24.8648 19.2876 24.7769 18.6213 24.367 18.1307L18.8735 11.5624H20.9048C21.5446 11.5624 22.1212 11.1758 22.3715 10.5789C22.619 9.99138 22.5023 9.30774 22.0734 8.83874L14.32 0.348975C13.896 -0.117139 13.105 -0.117139 12.6803 0.348975L4.92627 8.83874C4.49736 9.30774 4.38135 9.99138 4.62814 10.5789C4.87846 11.1758 5.45572 11.5624 6.09557 11.5624H8.12689L2.63267 18.1321C2.22416 18.6221 2.13627 19.2876 2.40275 19.8694C2.66994 20.4511 3.22963 20.8124 3.86385 20.8124H6.01752L0.400253 27.3517C-0.0216216 27.8424 -0.117247 28.5145 0.149941 29.1049C0.413613 29.6866 0.993691 30.0624 1.62721 30.0624H11.2502V31.8293L9.12041 35.327C8.74635 36.0959 9.29056 37.0007 10.1266 37.0007H16.8738C17.7098 37.0007 18.254 36.0959 17.8799 35.327L15.7502 31.8293V30.0624H25.3731C26.0067 30.0624 26.5867 29.6866 26.8504 29.1049C27.1176 28.5145 27.022 27.8424 26.6001 27.3517Z"/>
</g>

</symbol><symbol id="viber" viewBox="0 0 23 24">
<path d="M20.4063 2.337C19.8047 1.78863 17.37 0.0404148 11.9418 0.0169803C11.9418 0.0169803 5.54245 -0.36266 2.42569 2.46823C0.692053 4.18364 0.081016 6.70052 0.0147019 9.81731C-0.0516121 12.9341 -0.132136 18.774 5.55666 20.3582H5.5614L5.55666 22.7766C5.55666 22.7766 5.51877 23.7562 6.17243 23.953C6.95873 24.1968 7.42293 23.4515 8.17607 22.6501C8.58816 22.2095 9.15657 21.5627 9.58761 21.0706C13.4812 21.394 16.4701 20.6534 16.8111 20.5457C17.5974 20.2926 22.0452 19.7301 22.7652 13.8902C23.5136 7.86287 22.4052 4.0571 20.4063 2.337ZM21.0647 13.4497C20.4536 18.3241 16.849 18.6334 16.1859 18.8443C15.9017 18.9334 13.2728 19.5801 9.97128 19.3692C9.97128 19.3692 7.50819 22.3079 6.74084 23.0719C6.48979 23.3203 6.21507 23.2969 6.2198 22.8047C6.2198 22.4813 6.23875 18.7881 6.23875 18.7881C6.23401 18.7881 6.23401 18.7881 6.23875 18.7881C1.41677 17.4663 1.70097 12.4935 1.75308 9.8923C1.80518 7.29107 2.30254 5.15852 3.77092 3.72433C6.40927 1.35744 11.8423 1.70896 11.8423 1.70896C16.4322 1.7277 18.63 3.09628 19.1416 3.5556C20.8326 4.98979 21.6947 8.42061 21.0647 13.4497ZM14.4806 9.66264C14.4996 10.0657 13.8885 10.0938 13.8696 9.69077C13.8175 8.65964 13.3296 8.15814 12.3254 8.1019C11.9181 8.07847 11.956 7.47386 12.3586 7.49729C13.6801 7.56759 14.4143 8.3175 14.4806 9.66264ZM15.4422 10.1923C15.4896 8.20501 14.2343 6.64896 11.8518 6.47554C11.4491 6.44742 11.4918 5.84281 11.8944 5.87093C14.6417 6.06778 16.1053 7.93786 16.0532 10.2063C16.0485 10.6094 15.4327 10.5907 15.4422 10.1923ZM17.6684 10.8203C17.6732 11.2234 17.0574 11.2281 17.0574 10.825C17.029 7.00516 14.457 4.92418 11.3355 4.90074C10.9328 4.89605 10.9328 4.29613 11.3355 4.29613C14.8264 4.31956 17.6353 6.7052 17.6684 10.8203ZM17.1332 15.4182V15.4275C16.6216 16.3181 15.6648 17.3023 14.6796 16.9883L14.6701 16.9742C13.6707 16.6977 11.3165 15.4978 9.82918 14.3261C9.06183 13.7262 8.3608 13.0185 7.82081 12.3389C7.33293 11.7343 6.84031 11.0172 6.3619 10.1548C5.35298 8.35031 5.13036 7.54416 5.13036 7.54416C4.813 6.56928 5.80297 5.62253 6.70768 5.11634H6.71716C7.15294 4.89137 7.56977 4.96636 7.84923 5.29913C7.84923 5.29913 8.43659 5.99279 8.68763 6.33494C8.92447 6.65365 9.24183 7.16452 9.40761 7.45042C9.69655 7.96129 9.51656 8.48154 9.23235 8.69714L8.66395 9.14708C8.37501 9.37674 8.4129 9.80325 8.4129 9.80325C8.4129 9.80325 9.25604 12.9575 12.406 13.7543C12.406 13.7543 12.837 13.7918 13.0691 13.5059L13.5238 12.9435C13.7417 12.6623 14.2675 12.4842 14.7838 12.7701C15.4801 13.1591 16.3659 13.7637 16.9532 14.3121C17.2848 14.5792 17.3606 14.987 17.1332 15.4182Z"/>
</symbol><symbol id="whatsapp" viewBox="0 0 24 24">
<path d="M20.4054 3.4875C18.1607 1.2375 15.1714 0 11.9946 0C5.4375 0 0.101786 5.33571 0.101786 11.8929C0.101786 13.9875 0.648214 16.0339 1.6875 17.8393L0 24L6.30536 22.3446C8.04107 23.2929 9.99643 23.7911 11.9893 23.7911H11.9946C18.5464 23.7911 24 18.4554 24 11.8982C24 8.72143 22.65 5.7375 20.4054 3.4875ZM11.9946 21.7875C10.2161 21.7875 8.475 21.3107 6.95893 20.4107L6.6 20.1964L2.86071 21.1768L3.85714 17.5286L3.62143 17.1536C2.63036 15.5786 2.11071 13.7625 2.11071 11.8929C2.11071 6.44464 6.54643 2.00893 12 2.00893C14.6411 2.00893 17.1214 3.0375 18.9857 4.90714C20.85 6.77679 21.9964 9.25714 21.9911 11.8982C21.9911 17.3518 17.4429 21.7875 11.9946 21.7875ZM17.4161 14.3839C17.1214 14.2339 15.6589 13.5161 15.3857 13.4196C15.1125 13.3179 14.9143 13.2696 14.7161 13.5696C14.5179 13.8696 13.95 14.5339 13.7732 14.7375C13.6018 14.9357 13.425 14.9625 13.1304 14.8125C11.3839 13.9393 10.2375 13.2536 9.08571 11.2768C8.78036 10.7518 9.39107 10.7893 9.95893 9.65357C10.0554 9.45536 10.0071 9.28393 9.93214 9.13393C9.85714 8.98393 9.2625 7.52143 9.01607 6.92679C8.775 6.34821 8.52857 6.42857 8.34643 6.41786C8.175 6.40714 7.97679 6.40714 7.77857 6.40714C7.58036 6.40714 7.25893 6.48214 6.98571 6.77679C6.7125 7.07679 5.94643 7.79464 5.94643 9.25714C5.94643 10.7196 7.0125 12.1339 7.15714 12.3321C7.30714 12.5304 9.25179 15.5304 12.2357 16.8214C14.1214 17.6357 14.8607 17.7054 15.8036 17.5661C16.3768 17.4804 17.5607 16.8482 17.8071 16.1518C18.0536 15.4554 18.0536 14.8607 17.9786 14.7375C17.9089 14.6036 17.7107 14.5286 17.4161 14.3839Z"/>
</symbol></svg>