<svg width="124" height="87" viewBox="0 0 124 87" fill="none" xmlns="http://www.w3.org/2000/svg">
<path d="M120.35 4.53035C112.834 1.38439 105.313 0.1875 97.7953 0.1875C73.9311 0.185567 50.0689 12.2415 26.2047 12.2415C20.2197 12.2415 14.2387 11.4836 8.25375 9.58863C7.58144 9.37594 6.90719 9.27539 6.24844 9.27539C2.914 9.27539 0 11.8509 0 15.4262V76.7713C0 79.2135 1.40081 81.528 3.65025 82.4677C11.1658 85.6156 18.6872 86.8125 26.2047 86.8125C50.0689 86.8125 73.9331 74.7565 97.7972 74.7565C103.782 74.7565 109.763 75.5145 115.748 77.4094C116.42 77.6221 117.095 77.7227 117.753 77.7227C121.088 77.7227 124.002 75.1471 124.002 71.5719V10.2287C124 7.78459 122.599 5.47201 120.35 4.53035V4.53035ZM9.3 19.566C13.1982 20.5405 17.267 21.0297 21.452 21.2927C20.3127 26.9755 15.3062 31.2584 9.3 31.2584V19.566ZM9.3 74.6734V65.4347C15.9592 65.4347 21.3474 70.7076 21.6438 77.307C17.2786 76.957 13.1982 76.0869 9.3 74.6734V74.6734ZM62 62.0625C53.4382 62.0625 46.5 53.75 46.5 43.5C46.5 33.2481 53.4401 24.9375 62 24.9375C70.5599 24.9375 77.5 33.2481 77.5 43.5C77.5 53.7538 70.5579 62.0625 62 62.0625ZM114.7 67.434C111.305 66.5852 107.781 66.1095 104.175 65.8021C105.313 60.7593 109.504 56.9307 114.7 56.2733V67.434ZM114.7 21.7799C108.715 21.0239 104.071 16.0372 103.887 9.87867C107.673 10.2983 111.267 11.0833 114.7 12.3266V21.7799Z" fill="#265879"/>
</svg>
