<svg width="125" height="125" viewBox="0 0 125 125" fill="none" xmlns="http://www.w3.org/2000/svg">
<path d="M123.29 42.6753L113.622 33.0073C111.327 30.7124 107.616 30.7124 105.346 33.0073L46.874 91.479L19.6768 64.2573C17.3818 61.9624 13.6709 61.9624 11.4004 64.2573L1.70801 73.9497C-0.586914 76.2446 -0.586914 79.9556 1.70801 82.2505L42.7236 123.291C45.0186 125.585 48.7295 125.585 51 123.291L123.266 50.9761C125.561 48.6567 125.561 44.9458 123.29 42.6753ZM44.1152 68.5542C45.6289 70.0923 48.1191 70.0923 49.6328 68.5542L100.414 17.7241C101.928 16.186 101.928 13.7202 100.414 12.2065L89.3789 1.14697C87.8652 -0.391113 85.375 -0.391113 83.8613 1.14697L46.874 38.1343L33.3486 24.5845C31.835 23.0464 29.3447 23.0464 27.8311 24.5845L16.7715 35.644C15.2578 37.1821 15.2578 39.648 16.7715 41.1616L44.1152 68.5542Z" fill="#265879"/>
</svg>
