<svg width="125" height="125" viewBox="0 0 125 125" fill="none" xmlns="http://www.w3.org/2000/svg">
<path d="M62.5 1.95312C29.0527 1.95312 1.95312 29.0527 1.95312 62.5C1.95312 95.9473 29.0527 123.047 62.5 123.047C95.9473 123.047 123.047 95.9473 123.047 62.5C123.047 29.0527 95.9473 1.95312 62.5 1.95312ZM62.5 111.328C35.5225 111.328 13.6719 89.4775 13.6719 62.5C13.6719 35.5225 35.5225 13.6719 62.5 13.6719C89.4775 13.6719 111.328 35.5225 111.328 62.5C111.328 89.4775 89.4775 111.328 62.5 111.328ZM77.5879 85.8398L56.8604 70.7764C56.1035 70.2148 55.6641 69.3359 55.6641 68.4082V28.3203C55.6641 26.709 56.9824 25.3906 58.5938 25.3906H66.4062C68.0176 25.3906 69.3359 26.709 69.3359 28.3203V62.915L85.6445 74.7803C86.9629 75.7324 87.2314 77.5635 86.2793 78.8818L81.6895 85.2051C80.7373 86.499 78.9062 86.792 77.5879 85.8398Z" fill="#265879"/>
</svg>
