<svg width="39" height="30" viewBox="0 0 39 30" fill="none" xmlns="http://www.w3.org/2000/svg">
<path d="M35.75 0H3.25C1.45573 0 0 1.43973 0 3.21429V26.7857C0 28.5603 1.45573 30 3.25 30H35.75C37.5443 30 39 28.5603 39 26.7857V3.21429C39 1.43973 37.5443 0 35.75 0ZM35.75 26.7857H3.25V3.21429H35.75V26.7857ZM14.0833 15C16.4734 15 18.4167 13.0781 18.4167 10.7143C18.4167 8.35045 16.4734 6.42857 14.0833 6.42857C11.6932 6.42857 9.75 8.35045 9.75 10.7143C9.75 13.0781 11.6932 15 14.0833 15ZM8.01667 23.5714H20.15C20.9896 23.5714 21.6667 22.9955 21.6667 22.2857V21C21.6667 18.8705 19.6286 17.1429 17.1167 17.1429C16.3854 17.1429 15.8505 17.6786 14.0833 17.6786C12.262 17.6786 11.8219 17.1429 11.05 17.1429C8.53802 17.1429 6.5 18.8705 6.5 21V22.2857C6.5 22.9955 7.17708 23.5714 8.01667 23.5714ZM24.375 19.2857H31.9583C32.2563 19.2857 32.5 19.0446 32.5 18.75V17.6786C32.5 17.3839 32.2563 17.1429 31.9583 17.1429H24.375C24.0771 17.1429 23.8333 17.3839 23.8333 17.6786V18.75C23.8333 19.0446 24.0771 19.2857 24.375 19.2857ZM24.375 15H31.9583C32.2563 15 32.5 14.7589 32.5 14.4643V13.3929C32.5 13.0982 32.2563 12.8571 31.9583 12.8571H24.375C24.0771 12.8571 23.8333 13.0982 23.8333 13.3929V14.4643C23.8333 14.7589 24.0771 15 24.375 15ZM24.375 10.7143H31.9583C32.2563 10.7143 32.5 10.4732 32.5 10.1786V9.10714C32.5 8.8125 32.2563 8.57143 31.9583 8.57143H24.375C24.0771 8.57143 23.8333 8.8125 23.8333 9.10714V10.1786C23.8333 10.4732 24.0771 10.7143 24.375 10.7143Z" fill="#265879"/>
</svg>
