<svg width="36" height="32" viewBox="0 0 36 32" fill="none" xmlns="http://www.w3.org/2000/svg">
<g clip-path="url(#clip0)">
<path d="M34.138 0.606019C33.788 -0.175231 32.788 -0.206481 32.3692 0.531019C30.4317 3.89977 26.963 5.99977 23.0005 5.99977H18.0005C11.3755 5.99977 6.00049 11.3748 6.00049 17.9998C6.00049 18.4373 6.05049 18.856 6.09424 19.281C10.0817 16.4248 15.838 13.9998 24.0005 13.9998C24.5505 13.9998 25.0005 14.4498 25.0005 14.9998C25.0005 15.5498 24.5505 15.9998 24.0005 15.9998C8.28799 15.9998 1.62549 25.631 0.150487 29.2498C-0.262013 30.2685 0.225487 31.431 1.24424 31.8498C2.26924 32.2748 3.43174 31.781 3.85674 30.7685C3.95049 30.5435 5.16299 27.7748 8.35049 25.106C10.3755 27.8498 14.2255 30.4685 19.2817 29.931C29.0942 29.2185 36.0005 20.4185 36.0005 9.64352C36.0005 6.50602 35.3255 3.25602 34.138 0.606019Z" fill="#265879"/>
</g>
<defs>
<clipPath id="clip0">
<rect width="36" height="32" fill="white"/>
</clipPath>
</defs>
</svg>
