<svg width="124" height="124" viewBox="0 0 124 124" fill="none" xmlns="http://www.w3.org/2000/svg">
<g clip-path="url(#clip0)">
<path d="M49.4789 1.21088C25.4054 5.90932 6.00622 25.2601 1.25935 49.2609C-7.70159 94.5499 33.1554 128.311 63.9375 123.54C73.9156 121.99 78.8078 110.316 74.2305 101.331C68.6359 90.3359 76.6281 77.4999 88.9797 77.4999H108.282C116.952 77.4999 123.976 70.3312 124 61.6851C123.879 23.5163 89.1492 -6.5149 49.4789 1.21088ZM23.25 77.4999C18.9633 77.4999 15.5 74.0367 15.5 69.7499C15.5 65.4632 18.9633 61.9999 23.25 61.9999C27.5367 61.9999 31 65.4632 31 69.7499C31 74.0367 27.5367 77.4999 23.25 77.4999ZM31 46.4999C26.7133 46.4999 23.25 43.0367 23.25 38.7499C23.25 34.4632 26.7133 30.9999 31 30.9999C35.2867 30.9999 38.75 34.4632 38.75 38.7499C38.75 43.0367 35.2867 46.4999 31 46.4999ZM62 30.9999C57.7133 30.9999 54.25 27.5367 54.25 23.2499C54.25 18.9632 57.7133 15.4999 62 15.4999C66.2867 15.4999 69.75 18.9632 69.75 23.2499C69.75 27.5367 66.2867 30.9999 62 30.9999ZM93 46.4999C88.7133 46.4999 85.25 43.0367 85.25 38.7499C85.25 34.4632 88.7133 30.9999 93 30.9999C97.2867 30.9999 100.75 34.4632 100.75 38.7499C100.75 43.0367 97.2867 46.4999 93 46.4999Z" fill="#265879"/>
</g>
<defs>
<clipPath id="clip0">
<rect width="124" height="124" fill="white"/>
</clipPath>
</defs>
</svg>
