<svg width="27" height="37" viewBox="0 0 27 37" fill="none" xmlns="http://www.w3.org/2000/svg">
<g clip-path="url(#clip0)">
<path d="M26.6001 27.3517L20.9828 20.8124H23.1365C23.77 20.8124 24.3304 20.4511 24.5976 19.8686C24.8648 19.2876 24.7769 18.6213 24.367 18.1307L18.8735 11.5624H20.9048C21.5446 11.5624 22.1212 11.1758 22.3715 10.5789C22.619 9.99138 22.5023 9.30774 22.0734 8.83874L14.32 0.348975C13.896 -0.117139 13.105 -0.117139 12.6803 0.348975L4.92627 8.83874C4.49736 9.30774 4.38135 9.99138 4.62814 10.5789C4.87846 11.1758 5.45572 11.5624 6.09557 11.5624H8.12689L2.63267 18.1321C2.22416 18.6221 2.13627 19.2876 2.40275 19.8694C2.66994 20.4511 3.22963 20.8124 3.86385 20.8124H6.01752L0.400253 27.3517C-0.0216216 27.8424 -0.117247 28.5145 0.149941 29.1049C0.413613 29.6866 0.993691 30.0624 1.62721 30.0624H11.2502V31.8293L9.12041 35.327C8.74635 36.0959 9.29056 37.0007 10.1266 37.0007H16.8738C17.7098 37.0007 18.254 36.0959 17.8799 35.327L15.7502 31.8293V30.0624H25.3731C26.0067 30.0624 26.5867 29.6866 26.8504 29.1049C27.1176 28.5145 27.022 27.8424 26.6001 27.3517Z" fill="#265879"/>
</g>
<defs>
<clipPath id="clip0">
<rect width="27" height="37" fill="white"/>
</clipPath>
</defs>
</svg>
