<svg width="23" height="24" viewBox="0 0 23 24" fill="none" xmlns="http://www.w3.org/2000/svg">
<path d="M20.4063 2.337C19.8047 1.78863 17.37 0.0404148 11.9418 0.0169803C11.9418 0.0169803 5.54245 -0.36266 2.42569 2.46823C0.692053 4.18364 0.081016 6.70052 0.0147019 9.81731C-0.0516121 12.9341 -0.132136 18.774 5.55666 20.3582H5.5614L5.55666 22.7766C5.55666 22.7766 5.51877 23.7562 6.17243 23.953C6.95873 24.1968 7.42293 23.4515 8.17607 22.6501C8.58816 22.2095 9.15657 21.5627 9.58761 21.0706C13.4812 21.394 16.4701 20.6534 16.8111 20.5457C17.5974 20.2926 22.0452 19.7301 22.7652 13.8902C23.5136 7.86287 22.4052 4.0571 20.4063 2.337ZM21.0647 13.4497C20.4536 18.3241 16.849 18.6334 16.1859 18.8443C15.9017 18.9334 13.2728 19.5801 9.97128 19.3692C9.97128 19.3692 7.50819 22.3079 6.74084 23.0719C6.48979 23.3203 6.21507 23.2969 6.2198 22.8047C6.2198 22.4813 6.23875 18.7881 6.23875 18.7881C6.23401 18.7881 6.23401 18.7881 6.23875 18.7881C1.41677 17.4663 1.70097 12.4935 1.75308 9.8923C1.80518 7.29107 2.30254 5.15852 3.77092 3.72433C6.40927 1.35744 11.8423 1.70896 11.8423 1.70896C16.4322 1.7277 18.63 3.09628 19.1416 3.5556C20.8326 4.98979 21.6947 8.42061 21.0647 13.4497ZM14.4806 9.66264C14.4996 10.0657 13.8885 10.0938 13.8696 9.69077C13.8175 8.65964 13.3296 8.15814 12.3254 8.1019C11.9181 8.07847 11.956 7.47386 12.3586 7.49729C13.6801 7.56759 14.4143 8.3175 14.4806 9.66264ZM15.4422 10.1923C15.4896 8.20501 14.2343 6.64896 11.8518 6.47554C11.4491 6.44742 11.4918 5.84281 11.8944 5.87093C14.6417 6.06778 16.1053 7.93786 16.0532 10.2063C16.0485 10.6094 15.4327 10.5907 15.4422 10.1923ZM17.6684 10.8203C17.6732 11.2234 17.0574 11.2281 17.0574 10.825C17.029 7.00516 14.457 4.92418 11.3355 4.90074C10.9328 4.89605 10.9328 4.29613 11.3355 4.29613C14.8264 4.31956 17.6353 6.7052 17.6684 10.8203ZM17.1332 15.4182V15.4275C16.6216 16.3181 15.6648 17.3023 14.6796 16.9883L14.6701 16.9742C13.6707 16.6977 11.3165 15.4978 9.82918 14.3261C9.06183 13.7262 8.3608 13.0185 7.82081 12.3389C7.33293 11.7343 6.84031 11.0172 6.3619 10.1548C5.35298 8.35031 5.13036 7.54416 5.13036 7.54416C4.813 6.56928 5.80297 5.62253 6.70768 5.11634H6.71716C7.15294 4.89137 7.56977 4.96636 7.84923 5.29913C7.84923 5.29913 8.43659 5.99279 8.68763 6.33494C8.92447 6.65365 9.24183 7.16452 9.40761 7.45042C9.69655 7.96129 9.51656 8.48154 9.23235 8.69714L8.66395 9.14708C8.37501 9.37674 8.4129 9.80325 8.4129 9.80325C8.4129 9.80325 9.25604 12.9575 12.406 13.7543C12.406 13.7543 12.837 13.7918 13.0691 13.5059L13.5238 12.9435C13.7417 12.6623 14.2675 12.4842 14.7838 12.7701C15.4801 13.1591 16.3659 13.7637 16.9532 14.3121C17.2848 14.5792 17.3606 14.987 17.1332 15.4182Z" fill="#F4752C"/>
</svg>
